# File created by Blade
# Date/Time:  Thu Jan 22 16:53:03 2015
#---------------------------------------------------------
:version 1.10
:name HOM
:units
  mass 1.0
  length 1.000000
  angle deg
:documentation
     Acclaim Skeleton File
:root
   axis xyz
   order TX TY TZ RX RY RZ
   position 0.000000 0.000000 0.000000
   orientation 0 0 0
:bonedata
   begin
      id 1
      name RightUpLeg_dum
      direction -1.000000 0.000000 0.000000
      length 3.766986
      axis 0.0 0.0 0.0 xyz
   end
   begin
      id 2
      name LeftUpLeg_dum
      direction 1.000000 0.000000 0.000000
      length 3.766986
      axis 0.0 0.0 0.0 xyz
   end
   begin
      id 3
      name Spine_dum
      direction 0.000000 1.000000 0.000000
      length 7.779697
      axis 0.0 0.0 0.0 xyz
   end
   begin
      id 4
      name RightUpLeg
      direction 0.000000 -1.000000 0.000000
      length 18.017682
      axis 0.0 0.0 0.0 xyz
      dof rx ry rz
   end
   begin
      id 5
      name RightLeg
      direction 0.000000 -1.000000 0.000000
      length 16.881075
      axis 0.0 0.0 0.0 xyz
      dof rx ry rz
   end
   begin
      id 6
      name RightFoot
      direction 0.000000 -0.258819 0.965926
      length 5.770812
      axis 15.0 0.0 0.0 xyz
      dof rx ry rz
   end
   begin
      id 7
      name RightToeBase
      direction 0.000000 0.000000 1.000000
      length 2.952750
      axis 0.0 0.0 0.0 xyz
      dof rx ry rz
   end
   begin
      id 8
      name LeftUpLeg
      direction 0.000000 -1.000000 0.000000
      length 18.017682
      axis 0.0 0.0 0.0 xyz
      dof rx ry rz
   end
   begin
      id 9
      name LeftLeg
      direction 0.000000 -1.000000 0.000000
      length 16.881075
      axis 0.0 0.0 0.0 xyz
      dof rx ry rz
   end
   begin
      id 10
      name LeftFoot
      direction 0.000000 -0.258819 0.965926
      length 5.770812
      axis 15.0 0.0 0.0 xyz
      dof rx ry rz
   end
   begin
      id 11
      name LeftToeBase
      direction 0.000000 0.000000 1.000000
      length 2.952750
      axis 0.0 0.0 0.0 xyz
      dof rx ry rz
   end
   begin
      id 12
      name Spine
      direction 0.000000 1.000000 0.000000
      length 0.000000
      axis 0.0 0.0 0.0 xyz
      dof rx ry rz
   end
   begin
      id 13
      name Spine_dum1
      direction 0.000000 1.000000 0.000000
      length 10.941760
      axis 0.0 0.0 0.0 xyz
   end
   begin
      id 14
      name Spine_dum2
      direction 0.000000 1.000000 0.000000
      length 10.941760
      axis 0.0 0.0 0.0 xyz
   end
   begin
      id 15
      name Spine_dum3
      direction 0.000000 1.000000 0.000000
      length 16.646042
      axis 0.0 0.0 0.0 xyz
   end
   begin
      id 16
      name RightShoulder
      direction -1.000000 0.000000 0.000000
      length 7.708937
      axis 0.0 0.0 90.0 xyz
      dof rx ry rz
   end
   begin
      id 17
      name RightArm
      direction -1.000000 0.000000 0.000000
      length 11.521345
      axis 0.0 0.0 90.0 xyz
      dof rx ry rz
   end
   begin
      id 18
      name RightForeArm
      direction -1.000000 0.000000 0.000000
      length 10.175898
      axis 0.0 0.0 90.0 xyz
      dof ry rz rx
   end
   begin
      id 19
      name RightHand
      direction -1.000000 0.000000 0.000000
      length 0.000000
      axis 0.0 0.0 90.0 xyz
      dof rx ry rz
   end
   begin
      id 20
      name RightHand_dum1
      direction -1.000000 0.000000 0.000000
      length 3.937000
      axis 0.0 0.0 90.0 xyz
   end
   begin
      id 21
      name RightHand_dum2
      direction 0.000000 0.000000 0.000000
      length 0.000000
      axis 0.0 0.0 90.0 xyz
   end
   begin
      id 22
      name RightHandThumb1
      direction 0.000000 0.000000 1.000000
      length 3.937000
      axis 0.0 0.0 90.0 xyz
      dof rx rz ry
   end
   begin
      id 23
      name LeftShoulder
      direction 1.000000 0.000000 0.000000
      length 7.708937
      axis 0.0 0.0 -90.0 xyz
      dof rx ry rz
   end
   begin
      id 24
      name LeftArm
      direction 1.000000 0.000000 0.000000
      length 11.521345
      axis 0.0 0.0 -90.0 xyz
      dof rx ry rz
   end
   begin
      id 25
      name LeftForeArm
      direction 1.000000 0.000000 0.000000
      length 10.175898
      axis 0.0 0.0 -90.0 xyz
      dof ry rz rx
   end
   begin
      id 26
      name LeftHand
      direction 1.000000 0.000000 0.000000
      length 0.000000
      axis 0.0 0.0 -90.0 xyz
      dof rx ry rz
   end
   begin
      id 27
      name LeftHand_dum1
      direction 1.000000 0.000000 0.000000
      length 3.937000
      axis 0.0 0.0 -90.0 xyz
   end
   begin
      id 28
      name LeftHand_dum2
      direction 0.000000 0.000000 0.000000
      length 0.000000
      axis 0.0 0.0 -90.0 xyz
   end
   begin
      id 29
      name LeftHandThumb1
      direction 0.000000 0.000000 1.000000
      length 3.937000
      axis 0.0 0.0 -90.0 xyz
      dof rx rz ry
   end
   begin
      id 30
      name Head
      direction 0.000000 1.000000 0.000000
      length 4.527550
      axis 0.0 0.0 0.0 xyz
      dof rx ry rz
   end
:hierarchy
   begin
      root RightUpLeg_dum LeftUpLeg_dum Spine_dum
      RightUpLeg_dum RightUpLeg
      LeftUpLeg_dum LeftUpLeg
      Spine_dum Spine
      RightUpLeg RightLeg
      RightLeg RightFoot
      RightFoot RightToeBase
      LeftUpLeg LeftLeg
      LeftLeg LeftFoot
      LeftFoot LeftToeBase
      Spine Spine_dum1 Spine_dum2 Spine_dum3
      Spine_dum1 RightShoulder
      Spine_dum2 LeftShoulder
      Spine_dum3 Head
      RightShoulder RightArm
      RightArm RightForeArm
      RightForeArm RightHand
      RightHand RightHand_dum1 RightHand_dum2
      RightHand_dum2 RightHandThumb1
      LeftShoulder LeftArm
      LeftArm LeftForeArm
      LeftForeArm LeftHand
      LeftHand LeftHand_dum1 LeftHand_dum2
      LeftHand_dum2 LeftHandThumb1
   end

# File created by Blade
# Date/Time:  Thu Jan 22 16:52:56 2015
# Frame Rate: 120.000 fps
#------------------------------------------------------
:FULLY-SPECIFIED
:DEGREES
257
root 6.486194 36.724049 3.789302 -9.850859 -4.369809 2.736682
RightUpLeg -13.855899 -10.456654 -6.605118
RightLeg 26.871018 -0.000000 -0.000000
RightFoot -15.466971 -21.048283 19.634790
RightToeBase -0.166566 -0.000000 0.000000
LeftUpLeg 8.732881 3.826404 -3.658730
LeftLeg 16.242074 -0.000000 -0.000000
LeftFoot -21.427120 16.233617 -17.000826
LeftToeBase 9.096085 -0.000000 -0.000000
Spine 39.708687 -8.570931 -8.837304
RightShoulder 1.080846 -21.245512 -10.466750
RightArm 28.273979 -17.967328 67.279299
RightForeArm 0.895811 -0.000000 52.811101
RightHand 8.311537 -0.000000 -11.171837
RightHandThumb1 -24.326973 -0.000000 -32.862282
LeftShoulder -9.672649 32.325802 13.317323
LeftArm 73.634217 20.891268 -44.557689
LeftForeArm 39.931730 -0.000000 41.869234
LeftHand -11.589233 0.000000 -9.150858
LeftHandThumb1 -26.253704 0.000000 33.147579
Head 10.704787 10.761219 12.299547
258
root 6.484491 36.706906 3.846264 -9.687975 -4.647427 2.895031
RightUpLeg -13.935722 -10.334603 -6.566258
RightLeg 25.549462 -0.000000 -0.000000
RightFoot -15.362791 -20.949908 19.777702
RightToeBase -0.004600 -0.000000 0.000000
LeftUpLeg 8.667322 3.915589 -3.842887
LeftLeg 16.230010 -0.000000 -0.000000
LeftFoot -21.565328 16.408396 -17.121054
LeftToeBase 8.960888 -0.000000 -0.000000
Spine 39.891347 -8.677000 -8.849788
RightShoulder 1.243815 -21.015980 -10.663621
RightArm 28.294136 -17.924968 67.141405
RightForeArm 1.362817 -0.000000 52.318491
RightHand 8.414265 -0.000000 -11.086465
RightHandThumb1 -24.326973 -0.000000 -32.862282
LeftShoulder -9.658341 32.278402 13.316916
LeftArm 73.875551 21.017025 -44.219619
LeftForeArm 39.473181 -0.000000 43.210020
LeftHand -11.867891 -0.000000 -8.857337
LeftHandThumb1 -26.253704 0.000000 33.147579
Head 10.821310 10.840004 11.947967
259
root 6.483015 36.685445 3.904950 -9.492806 -4.885847 3.122448
RightUpLeg -14.043071 -10.278050 -6.594594
RightLeg 24.305905 -0.000000 -0.000000
RightFoot -15.145252 -20.812189 19.488953
RightToeBase 0.267412 -0.000000 -0.000000
LeftUpLeg 8.545312 3.998194 -4.093383
LeftLeg 16.247904 -0.000000 -0.000000
LeftFoot -21.735741 16.520297 -17.283928
LeftToeBase 8.986092 -0.000000 -0.000000
Spine 40.006198 -8.764930 -8.910028
RightShoulder 1.359588 -20.895447 -10.821476
RightArm 28.409517 -17.870818 66.972757
RightForeArm 1.694877 -0.000000 51.782969
RightHand 8.435839 -0.000000 -11.039988
RightHandThumb1 -24.326973 -0.000000 -32.862282
LeftShoulder -9.652727 32.280912 13.336584
LeftArm 74.180354 21.101244 -43.766602
LeftForeArm 38.896704 -0.000000 44.523866
LeftHand -11.742225 -0.000000 -8.890237
LeftHandThumb1 -26.253704 0.000000 33.147579
Head 10.982537 10.888333 11.646697
260
root 6.475710 36.665538 3.968010 -9.326701 -5.094664 3.293557
RightUpLeg -14.074483 -10.147397 -6.591097
RightLeg 23.127461 -0.000000 -0.000000
RightFoot -14.839731 -20.578480 19.259002
RightToeBase 0.168960 -0.000000 -0.000000
LeftUpLeg 8.447452 4.083923 -4.271504
LeftLeg 16.300886 -0.000000 -0.000000
LeftFoot -21.887427 16.615940 -17.377070
LeftToeBase 8.992174 -0.000000 -0.000000
Spine 40.183295 -8.877294 -8.880673
RightShoulder 1.480434 -20.692613 -11.003568
RightArm 28.441052 -17.791825 66.861969
RightForeArm 2.039387 0.000000 51.200864
RightHand 8.560877 -0.000000 -10.846510
RightHandThumb1 -24.326973 -0.000000 -32.862282
LeftShoulder -9.680125 32.328644 13.329611
LeftArm 74.565208 21.133400 -43.365732
LeftForeArm 38.418431 0.000000 45.731324
LeftHand -11.807383 -0.000000 -8.376011
LeftHandThumb1 -26.253704 0.000000 33.147579
Head 11.082866 10.961677 11.294417
261
root 6.470339 36.644327 4.034985 -9.174524 -5.268015 3.468919
RightUpLeg -14.071112 -10.058762 -6.611955
RightLeg 22.054375 -0.000000 -0.000000
RightFoot -14.495910 -20.203744 18.974611
RightToeBase 0.083550 -0.000000 -0.000000
LeftUpLeg 8.352498 4.142923 -4.461147
LeftLeg 16.380463 -0.000000 -0.000000
LeftFoot -22.055535 16.680796 -17.502432
LeftToeBase 8.917865 -0.000000 -0.000000
Spine 40.371118 -9.023121 -8.845806
RightShoulder 1.649179 -20.545808 -11.213965
RightArm 28.519883 -17.715228 66.696521
RightForeArm 2.425848 -0.000000 50.605026
RightHand 8.631471 0.000000 -10.797289
RightHandThumb1 -24.326973 -0.000000 -32.862282
LeftShoulder -9.715428 32.318405 13.341279
LeftArm 74.885592 21.193842 -43.026041
LeftForeArm 37.989771 0.000000 46.915299
LeftHand -11.857250 -0.000000 -8.273870
LeftHandThumb1 -26.253704 0.000000 33.147579
Head 11.191595 11.000144 10.939130
